<svg width="83" height="28" viewBox="0 0 83 28" fill="none" xmlns="http://www.w3.org/2000/svg">
<path d="M8.094 27L0.38 0.399998H3.458L10.222 23.58L9.158 27H8.094ZM20.672 27L13.414 0.399998H16.492L22.838 23.732L21.736 27H20.672ZM10.754 19.628L9.424 15.03L13.414 0.399998H16.492L11.134 19.628H10.754ZM23.674 19.628L22.306 15.068L26.638 0.399998H29.716L24.054 19.628H23.674ZM38.0377 27C36.9737 27 36.0364 26.81 35.2257 26.43C34.4404 26.0247 33.769 25.5307 33.2117 24.948C32.6797 24.34 32.2744 23.7193 31.9957 23.086C31.7424 22.4527 31.6157 21.8953 31.6157 21.414V12.066C31.6157 11.5847 31.7424 11.04 31.9957 10.432C32.2744 9.79867 32.6797 9.19067 33.2117 8.608C33.769 8.02533 34.4404 7.544 35.2257 7.164C36.0364 6.75867 36.961 6.556 37.9997 6.556V9.368C37.3157 9.368 36.7077 9.54533 36.1757 9.9C35.669 10.2293 35.2637 10.6347 34.9597 11.116C34.681 11.572 34.5417 11.99 34.5417 12.37V15.068H43.4337V12.408C43.4337 11.7747 43.2564 11.23 42.9017 10.774C42.547 10.318 42.091 9.96333 41.5337 9.71C41.0017 9.43133 40.4317 9.292 39.8237 9.292V6.556C40.837 6.556 41.825 6.79666 42.7877 7.278C43.7757 7.75933 44.599 8.418 45.2577 9.254C45.9164 10.0647 46.2457 10.9893 46.2457 12.028V17.88H34.5417V21.414C34.5417 21.7687 34.681 22.174 34.9597 22.63C35.2637 23.0607 35.6817 23.4407 36.2137 23.77C36.7457 24.0993 37.3537 24.264 38.0377 24.264V27ZM39.8237 27V24.226C40.5837 24.226 41.2297 24.074 41.7617 23.77C42.319 23.4407 42.7624 23.0607 43.0917 22.63C43.421 22.174 43.6364 21.7307 43.7377 21.3L46.2837 22.25C46.081 23.0607 45.6884 23.8333 45.1057 24.568C44.523 25.3027 43.7884 25.898 42.9017 26.354C42.015 26.7847 40.989 27 39.8237 27ZM54.1438 27V24.15H57.3738C57.9058 24.15 58.4124 24.0107 58.8938 23.732C59.4004 23.4533 59.8058 23.0987 60.1098 22.668C60.4138 22.212 60.5658 21.7687 60.5658 21.338V12.218C60.5658 11.7873 60.4138 11.3567 60.1098 10.926C59.8311 10.4953 59.4511 10.1407 58.9698 9.862C58.5138 9.558 57.9944 9.406 57.4118 9.406H54.1438V6.556H57.4118C58.2984 6.556 59.1091 6.73333 59.8438 7.088C60.6038 7.44266 61.2498 7.89866 61.7818 8.456C62.3138 9.01333 62.7191 9.60867 62.9978 10.242C63.3018 10.8753 63.4538 11.4833 63.4538 12.066V21.414C63.4538 21.87 63.3271 22.4147 63.0738 23.048C62.8458 23.6813 62.4784 24.302 61.9718 24.91C61.4651 25.4927 60.8191 25.9867 60.0338 26.392C59.2738 26.7973 58.3744 27 57.3358 27H54.1438ZM49.3178 27V0.171999H52.3198V27H49.3178ZM74.8674 27.076V24.264C75.7541 24.2387 76.5521 24.0613 77.2614 23.732C77.9708 23.4027 78.5281 22.896 78.9334 22.212C79.3641 21.528 79.5794 20.6667 79.5794 19.628C79.5794 19.096 79.5034 18.5767 79.3514 18.07C79.2248 17.538 78.9588 17.0567 78.5534 16.626C78.1481 16.17 77.5781 15.8153 76.8434 15.562C76.1088 15.2833 75.1334 15.144 73.9174 15.144V12.332C75.1334 12.332 76.1088 12.2053 76.8434 11.952C77.5781 11.6733 78.1481 11.3187 78.5534 10.888C78.9588 10.432 79.2248 9.938 79.3514 9.406C79.5034 8.874 79.5794 8.36733 79.5794 7.886C79.5794 6.29 79.1234 5.12467 78.2114 4.39C77.3248 3.65533 76.2101 3.27533 74.8674 3.25V0.399998C75.9314 0.399998 76.9194 0.564665 77.8314 0.893999C78.7434 1.22333 79.5414 1.70467 80.2254 2.338C80.9348 2.97133 81.4794 3.744 81.8594 4.656C82.2648 5.54267 82.4674 6.56867 82.4674 7.734C82.4674 9.12733 82.2268 10.318 81.7454 11.306C81.2641 12.294 80.5548 13.1047 79.6174 13.738C80.5548 14.3713 81.2641 15.182 81.7454 16.17C82.2268 17.158 82.4674 18.3487 82.4674 19.742C82.4674 20.9073 82.2648 21.946 81.8594 22.858C81.4794 23.7447 80.9348 24.5173 80.2254 25.176C79.5414 25.8093 78.7434 26.2907 77.8314 26.62C76.9194 26.924 75.9314 27.076 74.8674 27.076ZM72.7774 27.076C71.4854 27 70.3454 26.6327 69.3574 25.974C68.3694 25.29 67.5841 24.4413 67.0014 23.428C66.4188 22.4147 66.0894 21.3633 66.0134 20.274L68.6734 19.742C68.8254 20.8313 69.1421 21.7053 69.6234 22.364C70.1048 23.0227 70.6368 23.504 71.2194 23.808C71.8274 24.0867 72.3468 24.2387 72.7774 24.264V27.076ZM68.6734 7.772L66.0134 7.24C66.0894 6.12533 66.4188 5.06133 67.0014 4.048C67.5841 3.03466 68.3694 2.186 69.3574 1.502C70.3454 0.818 71.4854 0.450666 72.7774 0.399998V3.25C72.3468 3.25 71.8274 3.402 71.2194 3.706C70.6368 4.01 70.1048 4.49133 69.6234 5.15C69.1421 5.78333 68.8254 6.65733 68.6734 7.772Z" fill="white"/>
</svg>
